<mxfile host="app.diagrams.net" agent="Mozilla/5.0 (Macintosh; Intel Mac OS X 10_15_7) AppleWebKit/537.36 (KHTML, like Gecko) Chrome/141.0.0.0 Safari/537.36" version="28.0.7">
  <diagram name="Seite-1" id="Afa9OzGU9VT6Kw_RbNjM">
    <mxGraphModel dx="2866" dy="1126" grid="1" gridSize="10" guides="1" tooltips="1" connect="1" arrows="1" fold="1" page="1" pageScale="1" pageWidth="827" pageHeight="1169" math="0" shadow="0">
      <root>
        <mxCell id="0" />
        <mxCell id="1" parent="0" />
        <mxCell id="rirR2vLzDSutbt5T1oVs-34" style="edgeStyle=orthogonalEdgeStyle;rounded=0;orthogonalLoop=1;jettySize=auto;html=1;entryX=0;entryY=0.5;entryDx=0;entryDy=0;" parent="1" source="rirR2vLzDSutbt5T1oVs-29" target="CGac7kGa42z0TanbY6sD-27" edge="1">
          <mxGeometry relative="1" as="geometry" />
        </mxCell>
        <mxCell id="AIQHAvgBHXDuTM8aEul7-3" style="edgeStyle=orthogonalEdgeStyle;rounded=0;orthogonalLoop=1;jettySize=auto;html=1;entryX=0.5;entryY=0;entryDx=0;entryDy=0;" parent="1" target="AIQHAvgBHXDuTM8aEul7-2" edge="1">
          <mxGeometry relative="1" as="geometry">
            <mxPoint x="-380" y="630" as="sourcePoint" />
            <mxPoint x="-165" y="920" as="targetPoint" />
            <Array as="points">
              <mxPoint x="-380" y="631" />
              <mxPoint x="-165" y="631" />
            </Array>
          </mxGeometry>
        </mxCell>
        <mxCell id="AIQHAvgBHXDuTM8aEul7-5" style="edgeStyle=orthogonalEdgeStyle;rounded=0;orthogonalLoop=1;jettySize=auto;html=1;entryX=0;entryY=0.5;entryDx=0;entryDy=0;exitX=0;exitY=0.5;exitDx=0;exitDy=0;" parent="1" source="rirR2vLzDSutbt5T1oVs-29" target="rirR2vLzDSutbt5T1oVs-37" edge="1">
          <mxGeometry relative="1" as="geometry">
            <Array as="points">
              <mxPoint x="-830" y="580" />
              <mxPoint x="-830" y="1000" />
            </Array>
          </mxGeometry>
        </mxCell>
        <mxCell id="rirR2vLzDSutbt5T1oVs-29" value="&lt;b&gt;tabsets-content-script&amp;nbsp;&lt;/b&gt;&lt;br&gt;(running in each tab)&lt;div&gt;&lt;br&gt;&lt;/div&gt;&lt;div&gt;listening on messages: &lt;i&gt;getExcerpt, url-added, url-deleted&lt;/i&gt;&lt;br&gt;listening on events: &lt;i&gt;visibilitychange (-&amp;gt;sendUptIndiatorIcon)&lt;/i&gt;&lt;br&gt;&lt;div&gt;&lt;b&gt;&lt;br&gt;&lt;/b&gt;&lt;/div&gt;&lt;div&gt;&lt;b&gt;#onLoad (connectToBackground)&lt;/b&gt;&lt;/div&gt;&lt;div&gt;&lt;i&gt;sendUptIndiatorIcon&lt;/i&gt;&lt;/div&gt;&lt;div&gt;&lt;i&gt;&amp;gt;&amp;gt;&amp;gt; tabsets.bext.tab.excerpt -&amp;gt; app&lt;/i&gt;&lt;/div&gt;&lt;div&gt;&lt;i&gt;&amp;gt;&amp;gt;&amp;gt; tabsets.bex.tab.excerpt -&amp;gt; background&lt;br&gt;&lt;/i&gt;&lt;br&gt;updateIndicatorIconMessage()&lt;/div&gt;&lt;div&gt;bex.send(&#39;tabsets.bex.tab.excerpt&#39;)&lt;/div&gt;&lt;div&gt;&lt;b&gt;&lt;br&gt;&lt;/b&gt;&lt;/div&gt;&lt;div&gt;&lt;br&gt;&lt;/div&gt;&lt;/div&gt;" style="rounded=0;whiteSpace=wrap;html=1;fillColor=#fff2cc;strokeColor=#d6b656;" parent="1" vertex="1">
          <mxGeometry x="-770" y="480" width="390" height="220" as="geometry" />
        </mxCell>
        <mxCell id="rirR2vLzDSutbt5T1oVs-37" value="background.ts&lt;div&gt;&lt;br&gt;&lt;/div&gt;&lt;div&gt;&amp;lt;&amp;lt;&amp;lt; tabsets.bex.categories: initModel&lt;/div&gt;" style="rounded=1;whiteSpace=wrap;html=1;arcSize=4;" parent="1" vertex="1">
          <mxGeometry x="-770" y="890" width="390" height="240" as="geometry" />
        </mxCell>
        <mxCell id="rirR2vLzDSutbt5T1oVs-38" value="&lt;b&gt;Content IndexedDB&lt;br&gt;&lt;br&gt;&lt;/b&gt;&lt;div&gt;saveContent&lt;br&gt;update existing tabReferences&lt;/div&gt;" style="shape=cylinder3;whiteSpace=wrap;html=1;boundedLbl=1;backgroundOutline=1;size=5;fillColor=#dae8fc;strokeColor=#6c8ebf;" parent="1" vertex="1">
          <mxGeometry x="330" y="620" width="180" height="130" as="geometry" />
        </mxCell>
        <mxCell id="GqJf_n3KFXQSw2JaiG4w-2" style="edgeStyle=orthogonalEdgeStyle;rounded=0;orthogonalLoop=1;jettySize=auto;html=1;entryX=1;entryY=0.5;entryDx=0;entryDy=0;exitX=1;exitY=0.5;exitDx=0;exitDy=0;exitPerimeter=0;" parent="1" source="rirR2vLzDSutbt5T1oVs-40" target="GqJf_n3KFXQSw2JaiG4w-1" edge="1">
          <mxGeometry relative="1" as="geometry">
            <Array as="points">
              <mxPoint x="510" y="490" />
              <mxPoint x="580" y="490" />
              <mxPoint x="580" y="210" />
            </Array>
          </mxGeometry>
        </mxCell>
        <mxCell id="rirR2vLzDSutbt5T1oVs-40" value="&lt;b&gt;ContentStore (In Memory)&lt;br&gt;&lt;/b&gt;&lt;div style=&quot;background-color: rgb(255, 255, 255); color: rgb(8, 8, 8);&quot;&gt;&lt;pre style=&quot;font-family:&#39;JetBrains Mono&#39;,monospace;font-size:9,8pt;&quot;&gt;&lt;span style=&quot;color: rgb(145, 76, 7);&quot;&gt;setCurrentTabUrl&lt;/span&gt;&lt;span style=&quot;color: rgb(63, 145, 1);&quot;&gt;&lt;br&gt;&lt;/span&gt;&lt;span style=&quot;color: rgb(145, 76, 7);&quot;&gt;setCurrentTabContent&lt;/span&gt;&lt;span style=&quot;color: rgb(63, 145, 1);&quot;&gt;&lt;br&gt;&lt;/span&gt;&lt;span style=&quot;color: rgb(145, 76, 7);&quot;&gt;setCurrentTabMetas&lt;br&gt;setCurrentTabStorage&lt;/span&gt;&lt;/pre&gt;&lt;/div&gt;" style="shape=cylinder3;whiteSpace=wrap;html=1;boundedLbl=1;backgroundOutline=1;size=5;fillColor=#dae8fc;strokeColor=#6c8ebf;" parent="1" vertex="1">
          <mxGeometry x="330" y="380" width="180" height="150" as="geometry" />
        </mxCell>
        <mxCell id="IBlNkK7QeybPXFP5_elm-1" style="edgeStyle=orthogonalEdgeStyle;rounded=0;orthogonalLoop=1;jettySize=auto;html=1;entryX=0.5;entryY=0;entryDx=0;entryDy=0;" parent="1" source="rirR2vLzDSutbt5T1oVs-41" target="CGac7kGa42z0TanbY6sD-27" edge="1">
          <mxGeometry relative="1" as="geometry">
            <mxPoint x="-220" y="410" as="targetPoint" />
            <Array as="points">
              <mxPoint x="-340" y="160" />
              <mxPoint x="-340" y="400" />
              <mxPoint x="10" y="400" />
            </Array>
          </mxGeometry>
        </mxCell>
        <mxCell id="rirR2vLzDSutbt5T1oVs-41" value="&lt;div&gt;&lt;b&gt;useTabsStore#init&lt;/b&gt;&amp;nbsp;&lt;div&gt;&lt;div style=&quot;background-color: rgb(255, 255, 255); color: rgb(8, 8, 8);&quot;&gt;&lt;pre style=&quot;color: light-dark(rgb(8, 8, 8), rgb(230, 230, 230)); font-family: &amp;quot;JetBrains Mono&amp;quot;, monospace;&quot;&gt;&lt;span style=&quot;color: rgb(63, 145, 1);&quot;&gt;browserTabs&lt;span style=&quot;background-color: light-dark(rgb(255, 255, 255), rgb(18, 18, 18)); white-space: normal; color: rgb(145, 76, 7);&quot;&gt;&amp;nbsp;&lt;/span&gt;&lt;span style=&quot;background-color: light-dark(rgb(255, 255, 255), rgb(18, 18, 18)); color: light-dark(rgb(8, 8, 8), rgb(230, 230, 230)); white-space: normal;&quot;&gt;= chrome.tabs.&lt;/span&gt;&lt;span style=&quot;background-color: light-dark(rgb(255, 255, 255), rgb(18, 18, 18)); white-space: normal; color: rgb(0, 98, 122);&quot;&gt;query&lt;/span&gt;&lt;span style=&quot;background-color: light-dark(rgb(255, 255, 255), rgb(18, 18, 18)); white-space: normal; color: rgb(14, 74, 142);&quot;&gt;()&lt;br&gt;setCurrentTab&lt;br&gt;addListener:&lt;/span&gt;&lt;/span&gt;&lt;/pre&gt;&lt;/div&gt;&lt;/div&gt;&lt;/div&gt;&lt;pre style=&quot;color: light-dark(rgb(8, 8, 8), rgb(230, 230, 230)); font-family: &amp;quot;JetBrains Mono&amp;quot;, monospace;&quot;&gt;&lt;span style=&quot;color: rgb(63, 145, 1);&quot;&gt;&lt;span style=&quot;background-color: light-dark(rgb(255, 255, 255), rgb(18, 18, 18)); white-space: normal; color: rgb(14, 74, 142);&quot;&gt;&lt;b style=&quot;color: rgb(0, 0, 0); font-family: Helvetica; background-color: rgb(236, 236, 236);&quot;&gt;useTabsStore#tabs:onActivate&lt;/b&gt;&lt;/span&gt;&lt;/span&gt;&lt;/pre&gt;&lt;span style=&quot;font-family: &amp;quot;JetBrains Mono&amp;quot;, monospace; background-color: transparent; color: rgb(145, 76, 7);&quot;&gt;updateExtensionIcon&lt;/span&gt;&lt;span style=&quot;font-family: &amp;quot;JetBrains Mono&amp;quot;, monospace; background-color: transparent; color: rgb(63, 145, 1);&quot;&gt;(&lt;/span&gt;&lt;span style=&quot;font-family: &amp;quot;JetBrains Mono&amp;quot;, monospace; background-color: transparent; color: rgb(135, 16, 148);&quot;&gt;tabId&lt;/span&gt;&lt;span style=&quot;font-family: &amp;quot;JetBrains Mono&amp;quot;, monospace; background-color: transparent; color: rgb(63, 145, 1);&quot;&gt;)&lt;/span&gt;&lt;div&gt;&lt;div style=&quot;background-color: rgb(255, 255, 255); color: rgb(8, 8, 8);&quot;&gt;&lt;pre style=&quot;font-family:&#39;JetBrains Mono&#39;,monospace;font-size:9,8pt;&quot;&gt;&lt;span style=&quot;color: rgb(0, 51, 179);&quot;&gt;await &lt;/span&gt;&lt;span style=&quot;font-style:italic;&quot;&gt;useContentStore&lt;/span&gt;&lt;span style=&quot;color: rgb(14, 74, 142);&quot;&gt;()&lt;/span&gt;.&lt;span style=&quot;color: rgb(145, 76, 7);&quot;&gt;resetFor&lt;/span&gt;&lt;span style=&quot;color: rgb(14, 74, 142);&quot;&gt;(&lt;/span&gt;&lt;span style=&quot;color: rgb(42, 140, 124);&quot;&gt;tab&lt;/span&gt;&lt;span style=&quot;color: rgb(14, 74, 142);&quot;&gt;)&lt;br&gt;&lt;/span&gt;&lt;i&gt;tabsetService&lt;/i&gt;.&lt;span style=&quot;color: rgb(0, 98, 122);&quot;&gt;urlWasActivated&lt;/span&gt;&lt;span style=&quot;color: rgb(14, 74, 142);&quot;&gt;(&lt;/span&gt;&lt;span style=&quot;color: rgb(42, 140, 124);&quot;&gt;tab&lt;/span&gt;.&lt;span style=&quot;color: rgb(135, 16, 148);&quot;&gt;url&lt;/span&gt;&lt;span style=&quot;color: rgb(14, 74, 142);&quot;&gt;)&lt;br&gt;&lt;/span&gt;&lt;i&gt;tabsetsUiStore&lt;/i&gt;.&lt;span style=&quot;color: rgb(145, 76, 7);&quot;&gt;setMatchingTabsFor&lt;/span&gt;&lt;span style=&quot;color: rgb(14, 74, 142);&quot;&gt;(&lt;/span&gt;&lt;span style=&quot;color: rgb(42, 140, 124);&quot;&gt;tab&lt;/span&gt;.&lt;span style=&quot;color: rgb(135, 16, 148);&quot;&gt;url&lt;/span&gt;&lt;span style=&quot;color: rgb(14, 74, 142);&quot;&gt;)&lt;br&gt;currentChromeTab.value = tab&lt;br&gt;&lt;/span&gt;&lt;span style=&quot;color: rgb(0, 98, 122);&quot;&gt;startTimer&lt;/span&gt;&lt;span style=&quot;color: rgb(14, 74, 142);&quot;&gt;(&lt;/span&gt;&lt;span style=&quot;color: rgb(42, 140, 124);&quot;&gt;tab&lt;/span&gt;.&lt;span style=&quot;color: rgb(135, 16, 148);&quot;&gt;url&lt;/span&gt;&lt;span style=&quot;color: rgb(14, 74, 142);&quot;&gt;)&lt;/span&gt;&lt;/pre&gt;&lt;/div&gt;&lt;/div&gt;&lt;div&gt;&lt;b&gt;useTabsStore#tabs:onUpdate&lt;/b&gt;&amp;nbsp;&lt;div&gt;&lt;div style=&quot;background-color: rgb(255, 255, 255); color: rgb(8, 8, 8);&quot;&gt;&lt;pre style=&quot;color: light-dark(rgb(8, 8, 8), rgb(230, 230, 230)); font-family: &amp;quot;JetBrains Mono&amp;quot;, monospace;&quot;&gt;&lt;span style=&quot;color: rgb(63, 145, 1);&quot;&gt;browserTabs&lt;span style=&quot;background-color: light-dark(rgb(255, 255, 255), rgb(18, 18, 18)); white-space: normal; color: rgb(145, 76, 7);&quot;&gt;&amp;nbsp;&lt;/span&gt;&lt;span style=&quot;background-color: light-dark(rgb(255, 255, 255), rgb(18, 18, 18)); color: light-dark(rgb(8, 8, 8), rgb(230, 230, 230)); white-space: normal;&quot;&gt;= chrome.tabs.&lt;/span&gt;&lt;span style=&quot;background-color: light-dark(rgb(255, 255, 255), rgb(18, 18, 18)); white-space: normal; color: rgb(0, 98, 122);&quot;&gt;query&lt;/span&gt;&lt;span style=&quot;background-color: light-dark(rgb(255, 255, 255), rgb(18, 18, 18)); white-space: normal; color: rgb(14, 74, 142);&quot;&gt;()&lt;br&gt;setCurrentTab&lt;/span&gt;&lt;/span&gt;&lt;/pre&gt;&lt;pre style=&quot;color: light-dark(rgb(8, 8, 8), rgb(230, 230, 230)); font-family: &amp;quot;JetBrains Mono&amp;quot;, monospace;&quot;&gt;&lt;span style=&quot;color: rgb(63, 145, 1);&quot;&gt;&lt;span style=&quot;background-color: light-dark(rgb(255, 255, 255), rgb(18, 18, 18)); white-space: normal; color: rgb(14, 74, 142);&quot;&gt;&lt;div style=&quot;color: rgb(8, 8, 8);&quot;&gt;&lt;pre style=&quot;font-family:&#39;JetBrains Mono&#39;,monospace;font-size:9,8pt;&quot;&gt;&lt;span style=&quot;font-style:italic;&quot;&gt;tabsetUiStore&lt;/span&gt;.&lt;span style=&quot;color: rgb(145, 76, 7);&quot;&gt;setMatchingTabsFor&lt;/span&gt;&lt;span style=&quot;color: rgb(14, 74, 142);&quot;&gt;(&lt;/span&gt;&lt;span style=&quot;color: rgb(135, 16, 148);&quot;&gt;url&lt;/span&gt;&lt;span style=&quot;color: rgb(14, 74, 142);&quot;&gt;)&lt;br&gt;&lt;/span&gt;&lt;span style=&quot;font-style:italic;&quot;&gt;tabsetService&lt;/span&gt;.&lt;span style=&quot;color: rgb(0, 98, 122);&quot;&gt;urlWasActivated&lt;/span&gt;&lt;span style=&quot;color: rgb(14, 74, 142);&quot;&gt;(&lt;/span&gt;&lt;span style=&quot;color: rgb(135, 16, 148);&quot;&gt;url&lt;/span&gt;&lt;span style=&quot;color: rgb(14, 74, 142);&quot;&gt;)&lt;br&gt;&lt;/span&gt;&lt;span style=&quot;font-style:italic;&quot;&gt;tabsetsUiStore&lt;/span&gt;&lt;span style=&quot;color: rgb(14, 74, 142);&quot;&gt;()&lt;/span&gt;.&lt;span style=&quot;color: rgb(145, 76, 7);&quot;&gt;updateExtensionIcon&lt;/span&gt;&lt;span style=&quot;color: rgb(14, 74, 142);&quot;&gt;(&lt;/span&gt;&lt;span style=&quot;color: rgb(135, 16, 148);&quot;&gt;id&lt;/span&gt;&lt;span style=&quot;color: rgb(14, 74, 142);&quot;&gt;)&lt;br&gt;&lt;/span&gt;&lt;span style=&quot;color: rgb(14, 74, 142);&quot;&gt;&lt;br&gt;&lt;/span&gt;&lt;span style=&quot;color: rgb(0, 98, 122);&quot;&gt;checkSwitchTabsetSuggestion&lt;/span&gt;&lt;span style=&quot;color: rgb(14, 74, 142);&quot;&gt;(&lt;/span&gt;&lt;span style=&quot;color: rgb(135, 16, 148);&quot;&gt;windowId&lt;/span&gt;&lt;span style=&quot;color: rgb(14, 74, 142);&quot;&gt;)&lt;/span&gt;&lt;/pre&gt;&lt;/div&gt;&lt;/span&gt;&lt;/span&gt;&lt;/pre&gt;&lt;pre style=&quot;color: light-dark(rgb(8, 8, 8), rgb(230, 230, 230)); font-family: &amp;quot;JetBrains Mono&amp;quot;, monospace;&quot;&gt;&lt;b style=&quot;color: rgb(0, 0, 0); font-family: Helvetica; white-space: normal; background-color: rgb(236, 236, 236);&quot;&gt;useTabsStore#tabs:onRemove&lt;/b&gt;&lt;/pre&gt;&lt;pre style=&quot;color: light-dark(rgb(8, 8, 8), rgb(230, 230, 230)); font-family: &amp;quot;JetBrains Mono&amp;quot;, monospace;&quot;&gt;&lt;span style=&quot;color: rgb(63, 145, 1);&quot;&gt;browserTabs&lt;span style=&quot;background-color: light-dark(rgb(255, 255, 255), rgb(18, 18, 18)); white-space: normal; color: rgb(145, 76, 7);&quot;&gt;&amp;nbsp;&lt;/span&gt;&lt;span style=&quot;background-color: light-dark(rgb(255, 255, 255), rgb(18, 18, 18)); color: light-dark(rgb(8, 8, 8), rgb(230, 230, 230)); white-space: normal;&quot;&gt;= chrome.tabs.&lt;/span&gt;&lt;span style=&quot;background-color: light-dark(rgb(255, 255, 255), rgb(18, 18, 18)); white-space: normal; color: rgb(0, 98, 122);&quot;&gt;query&lt;/span&gt;&lt;span style=&quot;background-color: light-dark(rgb(255, 255, 255), rgb(18, 18, 18)); white-space: normal; color: rgb(14, 74, 142);&quot;&gt;()&lt;/span&gt;&lt;/span&gt;&lt;/pre&gt;&lt;/div&gt;&lt;/div&gt;&lt;/div&gt;" style="whiteSpace=wrap;html=1;" parent="1" vertex="1">
          <mxGeometry x="-770" y="10" width="390" height="440" as="geometry" />
        </mxCell>
        <mxCell id="CGac7kGa42z0TanbY6sD-28" style="edgeStyle=orthogonalEdgeStyle;rounded=0;orthogonalLoop=1;jettySize=auto;html=1;entryX=0;entryY=0.5;entryDx=0;entryDy=0;entryPerimeter=0;" parent="1" source="CGac7kGa42z0TanbY6sD-27" target="rirR2vLzDSutbt5T1oVs-38" edge="1">
          <mxGeometry relative="1" as="geometry" />
        </mxCell>
        <mxCell id="CGac7kGa42z0TanbY6sD-27" value="&lt;b&gt;BexFunctions#handleBexExcerpt&lt;br&gt;payload:&lt;br&gt;&lt;/b&gt;&lt;div style=&quot;background-color: rgb(255, 255, 255);&quot;&gt;&lt;pre style=&quot;font-family: &amp;quot;JetBrains Mono&amp;quot;, monospace;&quot;&gt;&lt;span style=&quot;color: rgb(135, 16, 148);&quot;&gt;html&lt;/span&gt;&lt;font color=&quot;#080808&quot;&gt;: &lt;/font&gt;&lt;span style=&quot;color: rgb(0, 51, 179);&quot;&gt;string&lt;/span&gt;&lt;font color=&quot;#080808&quot;&gt;,&lt;br&gt;&lt;/font&gt;&lt;span style=&quot;color: rgb(135, 16, 148);&quot;&gt;metas&lt;/span&gt;&lt;font color=&quot;#080808&quot;&gt;: &lt;/font&gt;&lt;font color=&quot;#0e4a8e&quot;&gt;object&lt;/font&gt;&lt;font color=&quot;#080808&quot;&gt;,&lt;br&gt;&lt;/font&gt;&lt;span style=&quot;color: rgb(135, 16, 148);&quot;&gt;port&lt;/span&gt;&lt;font color=&quot;#080808&quot;&gt;: &lt;/font&gt;&lt;span style=&quot;color: rgb(0, 51, 179);&quot;&gt;string&lt;/span&gt;&lt;font color=&quot;#080808&quot;&gt;,&lt;br&gt;&lt;/font&gt;&lt;span style=&quot;color: rgb(135, 16, 148);&quot;&gt;url&lt;/span&gt;&lt;font color=&quot;#080808&quot;&gt;: &lt;/font&gt;&lt;span style=&quot;color: rgb(0, 51, 179);&quot;&gt;string&lt;/span&gt;&lt;font color=&quot;#080808&quot;&gt;,&lt;br&gt;&lt;/font&gt;&lt;span style=&quot;color: rgb(135, 16, 148);&quot;&gt;storage&lt;/span&gt;&lt;font color=&quot;#080808&quot;&gt;: &lt;/font&gt;&lt;span style=&quot;color: rgb(0, 51, 179);&quot;&gt;object&lt;/span&gt;&lt;font color=&quot;#080808&quot;&gt;,&lt;/font&gt;&lt;/pre&gt;&lt;/div&gt;" style="rounded=1;whiteSpace=wrap;html=1;arcSize=9;" parent="1" vertex="1">
          <mxGeometry x="-70" y="450" width="220" height="150" as="geometry" />
        </mxCell>
        <mxCell id="CGac7kGa42z0TanbY6sD-29" style="edgeStyle=orthogonalEdgeStyle;rounded=0;orthogonalLoop=1;jettySize=auto;html=1;entryX=0;entryY=0.5;entryDx=0;entryDy=0;entryPerimeter=0;exitX=1;exitY=0.5;exitDx=0;exitDy=0;" parent="1" source="CGac7kGa42z0TanbY6sD-27" target="rirR2vLzDSutbt5T1oVs-40" edge="1">
          <mxGeometry relative="1" as="geometry">
            <mxPoint x="-90" y="560" as="sourcePoint" />
            <mxPoint y="725" as="targetPoint" />
          </mxGeometry>
        </mxCell>
        <mxCell id="GqJf_n3KFXQSw2JaiG4w-4" style="edgeStyle=orthogonalEdgeStyle;rounded=0;orthogonalLoop=1;jettySize=auto;html=1;exitX=0;exitY=0.563;exitDx=0;exitDy=0;exitPerimeter=0;" parent="1" source="GqJf_n3KFXQSw2JaiG4w-1" target="GqJf_n3KFXQSw2JaiG4w-3" edge="1">
          <mxGeometry relative="1" as="geometry">
            <Array as="points">
              <mxPoint x="-80" y="230" />
              <mxPoint x="-150" y="230" />
            </Array>
          </mxGeometry>
        </mxCell>
        <mxCell id="GqJf_n3KFXQSw2JaiG4w-1" value="&lt;b&gt;contentStore.ts&lt;/b&gt;&lt;div&gt;&lt;b&gt;&lt;br&gt;&lt;/b&gt;&lt;/div&gt;&lt;div&gt;&lt;b&gt;watchEffect(currentTabContent)&lt;br&gt;&lt;br&gt;&lt;/b&gt;&lt;div style=&quot;background-color:#ffffff;color:#080808&quot;&gt;&lt;pre style=&quot;font-family:&#39;JetBrains Mono&#39;,monospace;font-size:9,8pt;&quot;&gt;&lt;span style=&quot;color:#00627a;&quot;&gt;checkLinks&lt;/span&gt;&lt;span style=&quot;color:#bc0ba2;&quot;&gt;(&lt;/span&gt;&lt;span style=&quot;color:#00627a;&quot;&gt;$&lt;/span&gt;&lt;span style=&quot;color:#bc0ba2;&quot;&gt;)&lt;br&gt;&lt;/span&gt;&lt;span style=&quot;color:#00627a;&quot;&gt;checkMeta&lt;/span&gt;&lt;span style=&quot;color:#bc0ba2;&quot;&gt;(&lt;/span&gt;&lt;span style=&quot;color:#00627a;&quot;&gt;$&lt;/span&gt;&lt;span style=&quot;color:#bc0ba2;&quot;&gt;)&lt;br&gt;&lt;/span&gt;&lt;span style=&quot;color:#00627a;&quot;&gt;checkScripts&lt;/span&gt;&lt;span style=&quot;color:#bc0ba2;&quot;&gt;(&lt;/span&gt;&lt;span style=&quot;color:#00627a;&quot;&gt;$&lt;/span&gt;&lt;span style=&quot;color:#bc0ba2;&quot;&gt;)&lt;br&gt;&lt;/span&gt;&lt;span style=&quot;color:#00627a;&quot;&gt;checkArticle&lt;/span&gt;&lt;span style=&quot;color:#bc0ba2;&quot;&gt;()&lt;/span&gt;&lt;/pre&gt;&lt;/div&gt;&lt;/div&gt;" style="rounded=0;whiteSpace=wrap;html=1;fillColor=#f8cecc;strokeColor=#b85450;" parent="1" vertex="1">
          <mxGeometry x="290" y="110" width="260" height="160" as="geometry" />
        </mxCell>
        <mxCell id="GqJf_n3KFXQSw2JaiG4w-3" value="&lt;div style=&quot;background-color: rgb(255, 255, 255); color: rgb(8, 8, 8);&quot;&gt;&lt;pre style=&quot;font-family: &amp;quot;JetBrains Mono&amp;quot;, monospace;&quot;&gt;&lt;span style=&quot;color: rgb(42, 140, 124);&quot;&gt;currentTabArticle:&lt;/span&gt;&lt;span style=&quot;color: rgb(42, 140, 124);&quot;&gt;&lt;font color=&quot;rgba(0, 0, 0, 0)&quot;&gt; &lt;/font&gt;&lt;/span&gt;&lt;font color=&quot;#2a8c7c&quot;&gt;set if title ex.&lt;/font&gt;&lt;span style=&quot;color: rgb(0, 51, 179);&quot;&gt;&lt;br&gt;&lt;/span&gt;&lt;span style=&quot;color: rgb(42, 140, 124);&quot;&gt;articleSnapshot =&lt;/span&gt;&lt;font color=&quot;rgba(0, 0, 0, 0)&quot;&gt;=&lt;/font&gt;&lt;span style=&quot;color: rgb(42, 140, 124);&quot;&gt;currentTabArticle&lt;/span&gt;&lt;font color=&quot;rgba(0, 0, 0, 0)&quot;&gt;&lt;br&gt;&lt;/font&gt;&lt;/pre&gt;&lt;/div&gt;" style="rounded=1;whiteSpace=wrap;html=1;" parent="1" vertex="1">
          <mxGeometry x="-20" y="270" width="280" height="90" as="geometry" />
        </mxCell>
        <mxCell id="IBlNkK7QeybPXFP5_elm-4" value="getExcerpt" style="text;html=1;align=center;verticalAlign=middle;whiteSpace=wrap;rounded=0;" parent="1" vertex="1">
          <mxGeometry x="-340" y="130" width="60" height="30" as="geometry" />
        </mxCell>
        <mxCell id="IBlNkK7QeybPXFP5_elm-5" style="edgeStyle=orthogonalEdgeStyle;rounded=0;orthogonalLoop=1;jettySize=auto;html=1;entryX=0;entryY=0;entryDx=0;entryDy=40;entryPerimeter=0;" parent="1" source="GqJf_n3KFXQSw2JaiG4w-3" target="rirR2vLzDSutbt5T1oVs-40" edge="1">
          <mxGeometry relative="1" as="geometry" />
        </mxCell>
        <mxCell id="FbNXz-g6V-c6oPykWnCw-1" style="edgeStyle=orthogonalEdgeStyle;rounded=0;orthogonalLoop=1;jettySize=auto;html=1;entryX=0.5;entryY=0;entryDx=0;entryDy=0;" edge="1" parent="1" source="AIQHAvgBHXDuTM8aEul7-1" target="rirR2vLzDSutbt5T1oVs-37">
          <mxGeometry relative="1" as="geometry" />
        </mxCell>
        <mxCell id="AIQHAvgBHXDuTM8aEul7-1" value="&lt;b&gt;tabsets-ai-content-script&amp;nbsp;&lt;/b&gt;&lt;br&gt;(running in each tab)&lt;br&gt;&lt;div&gt;&lt;b&gt;&lt;br&gt;&lt;/b&gt;&lt;/div&gt;&lt;div&gt;if (AI active) { // from ext. storage&lt;/div&gt;&lt;div&gt;read categories (from ext. storage)&lt;/div&gt;&lt;div&gt;&amp;gt;&amp;gt;&amp;gt; tabsets.bex.categories -&amp;gt; background&lt;/div&gt;&lt;div&gt;}&lt;/div&gt;&lt;div&gt;&lt;br&gt;&lt;/div&gt;" style="rounded=0;whiteSpace=wrap;html=1;fillColor=#fff2cc;strokeColor=#d6b656;" parent="1" vertex="1">
          <mxGeometry x="-770" y="720" width="390" height="120" as="geometry" />
        </mxCell>
        <mxCell id="AIQHAvgBHXDuTM8aEul7-2" value="&lt;div&gt;&lt;br&gt;&lt;/div&gt;&lt;div&gt;&lt;b&gt;&lt;br&gt;&lt;/b&gt;&lt;/div&gt;&lt;div&gt;&lt;b&gt;AppService.ts#init&lt;/b&gt;&lt;br&gt;(&lt;span style=&quot;background-color: transparent; color: light-dark(rgb(0, 0, 0), rgb(255, 255, 255));&quot;&gt;called only first time tabsets opens, i.e.&lt;/span&gt;&lt;/div&gt;&lt;div&gt;&lt;span style=&quot;color: light-dark(rgb(0, 0, 0), rgb(255, 255, 255)); background-color: rgb(179, 255, 102);&quot;&gt;reloading sidepanel)&lt;/span&gt;&lt;/div&gt;&lt;div&gt;&lt;br&gt;&lt;/div&gt;&lt;div&gt;&lt;br&gt;&lt;/div&gt;" style="rounded=1;whiteSpace=wrap;html=1;arcSize=4;" parent="1" vertex="1">
          <mxGeometry x="-360" y="870" width="390" height="260" as="geometry" />
        </mxCell>
        <mxCell id="t_RJBEyMKExhr2YtHwcH-2" style="edgeStyle=orthogonalEdgeStyle;rounded=0;orthogonalLoop=1;jettySize=auto;html=1;entryX=0.75;entryY=1;entryDx=0;entryDy=0;exitX=1;exitY=0.5;exitDx=0;exitDy=0;" parent="1" source="j5nO92X6wfStYqYwYL5U-9" target="CGac7kGa42z0TanbY6sD-27" edge="1">
          <mxGeometry relative="1" as="geometry">
            <Array as="points">
              <mxPoint x="-40" y="935" />
              <mxPoint x="95" y="935" />
            </Array>
          </mxGeometry>
        </mxCell>
        <mxCell id="AIQHAvgBHXDuTM8aEul7-4" value="tabsets.bex.tab.excerpt&lt;br&gt;(only if tabsets is active)" style="text;html=1;align=center;verticalAlign=middle;whiteSpace=wrap;rounded=0;" parent="1" vertex="1">
          <mxGeometry x="-170" y="780" width="160" height="30" as="geometry" />
        </mxCell>
        <mxCell id="AIQHAvgBHXDuTM8aEul7-6" value="excerpt" style="text;html=1;align=center;verticalAlign=middle;whiteSpace=wrap;rounded=0;" parent="1" vertex="1">
          <mxGeometry x="-827" y="860" width="60" height="30" as="geometry" />
        </mxCell>
        <mxCell id="j5nO92X6wfStYqYwYL5U-8" style="edgeStyle=orthogonalEdgeStyle;rounded=0;orthogonalLoop=1;jettySize=auto;html=1;entryX=0.25;entryY=1;entryDx=0;entryDy=0;" parent="1" source="c0ksplZKKUl9rhp-REH5-1" target="CGac7kGa42z0TanbY6sD-27" edge="1">
          <mxGeometry relative="1" as="geometry" />
        </mxCell>
        <mxCell id="c0ksplZKKUl9rhp-REH5-1" value="&lt;b&gt;contentStore.ts&lt;/b&gt;&lt;div&gt;&lt;b&gt;&lt;br&gt;&lt;/b&gt;&lt;/div&gt;&lt;div&gt;&lt;b&gt;resetFor(tab)&lt;/b&gt;&lt;/div&gt;" style="rounded=0;whiteSpace=wrap;html=1;fillColor=#f8cecc;strokeColor=#b85450;" parent="1" vertex="1">
          <mxGeometry x="-310" y="650" width="110" height="110" as="geometry" />
        </mxCell>
        <mxCell id="j5nO92X6wfStYqYwYL5U-4" style="edgeStyle=orthogonalEdgeStyle;rounded=0;orthogonalLoop=1;jettySize=auto;html=1;entryX=0.25;entryY=1;entryDx=0;entryDy=0;exitX=0;exitY=0.5;exitDx=0;exitDy=0;" parent="1" source="j5nO92X6wfStYqYwYL5U-3" target="c0ksplZKKUl9rhp-REH5-1" edge="1">
          <mxGeometry relative="1" as="geometry" />
        </mxCell>
        <mxCell id="j5nO92X6wfStYqYwYL5U-3" value="&lt;span style=&quot;background-color: transparent; font-family: &amp;quot;JetBrains Mono&amp;quot;, monospace; color: rgb(145, 76, 7);&quot;&gt;updateExtensionIcon&lt;/span&gt;&lt;span style=&quot;background-color: transparent; font-family: &amp;quot;JetBrains Mono&amp;quot;, monospace; color: rgb(63, 145, 1);&quot;&gt;(&lt;/span&gt;&lt;span style=&quot;background-color: transparent; font-family: &amp;quot;JetBrains Mono&amp;quot;, monospace; color: rgb(135, 16, 148);&quot;&gt;tabId&lt;/span&gt;&lt;span style=&quot;background-color: transparent; font-family: &amp;quot;JetBrains Mono&amp;quot;, monospace; color: rgb(63, 145, 1);&quot;&gt;)&lt;br&gt;&lt;/span&gt;&lt;span style=&quot;background-color: transparent; color: rgb(8, 8, 8); font-family: &amp;quot;JetBrains Mono&amp;quot;, monospace; font-style: italic;&quot;&gt;useContentStore&lt;/span&gt;&lt;span style=&quot;background-color: transparent; font-family: &amp;quot;JetBrains Mono&amp;quot;, monospace; color: rgb(14, 74, 142);&quot;&gt;()&lt;/span&gt;&lt;span style=&quot;background-color: transparent; color: rgb(8, 8, 8); font-family: &amp;quot;JetBrains Mono&amp;quot;, monospace;&quot;&gt;.&lt;/span&gt;&lt;span style=&quot;background-color: transparent; font-family: &amp;quot;JetBrains Mono&amp;quot;, monospace; color: rgb(145, 76, 7);&quot;&gt;resetFor&lt;/span&gt;&lt;span style=&quot;background-color: transparent; font-family: &amp;quot;JetBrains Mono&amp;quot;, monospace; color: rgb(14, 74, 142);&quot;&gt;(&lt;/span&gt;&lt;span style=&quot;background-color: transparent; font-family: &amp;quot;JetBrains Mono&amp;quot;, monospace; color: rgb(42, 140, 124);&quot;&gt;tab&lt;/span&gt;&lt;span style=&quot;background-color: transparent; font-family: &amp;quot;JetBrains Mono&amp;quot;, monospace; color: rgb(14, 74, 142);&quot;&gt;)&lt;/span&gt;" style="rounded=0;whiteSpace=wrap;html=1;dashed=1;" parent="1" vertex="1">
          <mxGeometry x="-280" y="1030" width="250" height="60" as="geometry" />
        </mxCell>
        <mxCell id="j5nO92X6wfStYqYwYL5U-6" style="edgeStyle=orthogonalEdgeStyle;rounded=0;orthogonalLoop=1;jettySize=auto;html=1;entryX=1.003;entryY=0.885;entryDx=0;entryDy=0;entryPerimeter=0;startArrow=classicThin;startFill=1;" parent="1" source="c0ksplZKKUl9rhp-REH5-1" target="rirR2vLzDSutbt5T1oVs-29" edge="1">
          <mxGeometry relative="1" as="geometry">
            <Array as="points">
              <mxPoint x="-330" y="657" />
              <mxPoint x="-330" y="657" />
            </Array>
          </mxGeometry>
        </mxCell>
        <mxCell id="j5nO92X6wfStYqYwYL5U-7" value="getExcerpt" style="text;html=1;align=center;verticalAlign=middle;whiteSpace=wrap;rounded=0;" parent="1" vertex="1">
          <mxGeometry x="-374" y="655" width="60" height="30" as="geometry" />
        </mxCell>
        <mxCell id="j5nO92X6wfStYqYwYL5U-9" value="&lt;b&gt;App.ts#bex.on(&#39;tabsets.bex.tab.exerpt&#39;)&lt;/b&gt;&lt;br&gt;BexFunctions#handleBexExerpt()" style="rounded=0;whiteSpace=wrap;html=1;" parent="1" vertex="1">
          <mxGeometry x="-290" y="920" width="250" height="40" as="geometry" />
        </mxCell>
      </root>
    </mxGraphModel>
  </diagram>
</mxfile>
